<?xml version="1.0" standalone="no"?>
<!DOCTYPE svg PUBLIC "-//W3C//DTD SVG 20010904//EN"
 "http://www.w3.org/TR/2001/REC-SVG-20010904/DTD/svg10.dtd">
<svg version="1.0" xmlns="http://www.w3.org/2000/svg"
 width="512.000000pt" height="512.000000pt" viewBox="0 0 512.000000 512.000000"
 preserveAspectRatio="xMidYMid meet">

<g transform="translate(0.000000,512.000000) scale(0.100000,-0.100000)"
fill="#000000" stroke="none">
<path d="M1424 4153 c-29 -6 -130 -112 -138 -145 -3 -16 -5 -28 -3 -28 1 0 43
41 92 90 49 50 85 89 80 89 -6 -1 -19 -4 -31 -6z"/>
<path d="M1446 3991 c-130 -130 -167 -173 -164 -190 2 -18 36 11 193 169 159
159 186 190 165 190 -19 0 -65 -40 -194 -169z"/>
<path d="M1547 3892 c-211 -211 -268 -274 -265 -291 2 -17 55 31 293 269 239
239 285 290 265 290 -20 0 -85 -60 -293 -268z"/>
<path d="M1647 3792 c-291 -291 -368 -373 -365 -391 2 -17 75 51 393 369 319
319 385 390 365 390 -20 0 -105 -80 -393 -368z"/>
<path d="M1747 3692 c-372 -372 -468 -473 -465 -491 2 -17 95 70 493 469 399
399 485 490 465 490 -20 0 -125 -100 -493 -468z"/>
<path d="M1847 3592 c-452 -452 -568 -573 -565 -591 2 -17 114 90 593 569 479
479 585 590 565 590 -20 0 -145 -120 -593 -568z"/>
<path d="M1947 3492 c-532 -532 -668 -673 -665 -691 2 -17 134 110 693 669
559 559 685 690 665 690 -20 0 -165 -140 -693 -668z"/>
<path d="M2047 3392 c-613 -613 -768 -773 -765 -791 2 -17 154 129 793 769
639 639 785 790 765 790 -20 0 -185 -160 -793 -768z"/>
<path d="M2147 3292 c-693 -693 -868 -873 -865 -891 2 -17 173 149 893 869
719 719 885 890 865 890 -20 0 -205 -180 -893 -868z"/>
<path d="M2198 3143 l-918 -918 0 -565 0 -566 23 -44 c16 -33 34 -51 67 -67
l44 -23 1146 0 1146 0 44 23 c33 16 51 34 68 67 l22 44 0 573 0 573 -47 0 -47
0 47 48 c30 31 47 56 47 72 0 22 -9 16 -73 -48 l-72 -72 -75 0 -75 0 148 148
c110 110 147 153 147 172 0 21 -29 -4 -173 -148 l-172 -172 -75 0 -75 0 248
248 c190 190 247 253 247 272 0 20 -49 -24 -273 -248 l-272 -272 -75 0 -75 0
348 348 c270 270 347 353 347 372 0 20 -69 -44 -373 -348 l-372 -372 -75 0
-75 0 448 448 c350 350 447 452 447 472 0 20 -89 -64 -473 -448 l-472 -472
-75 0 -75 0 548 548 c430 430 547 552 547 572 0 20 -109 -84 -573 -548 l-572
-572 -75 0 -75 0 600 600 c487 487 595 600 575 600 -20 0 -152 -127 -625 -600
l-600 -600 -75 0 -75 0 600 600 c487 487 595 600 575 600 -20 0 -152 -127
-625 -600 l-600 -600 -75 0 -75 0 600 600 c487 487 595 600 575 600 -20 0
-152 -127 -625 -600 l-600 -600 -75 0 -75 0 628 628 c503 503 626 631 615 640
-11 9 -142 -117 -653 -628 l-640 -640 -75 0 -75 0 688 688 c542 542 687 692
687 712 0 20 -137 -112 -713 -688 l-712 -712 -75 0 -75 0 788 788 c622 622
787 792 787 812 0 20 -157 -132 -813 -788 l-812 -812 -75 0 -75 0 888 888
c708 708 888 893 885 911 -2 17 -180 -156 -920 -896z m26 -1318 c44 -21 67
-65 67 -128 0 -115 -50 -157 -187 -157 l-64 0 0 -80 0 -80 -50 0 -50 0 0 230
0 230 126 0 c92 0 135 -4 158 -15z m429 1 c147 -61 143 -354 -5 -432 -19 -10
-64 -14 -153 -14 l-125 0 0 230 0 230 125 0 c84 0 137 -5 158 -14z m487 -1
c60 -31 78 -131 32 -177 -19 -19 -19 -20 9 -48 53 -52 34 -159 -34 -200 -28
-17 -51 -20 -174 -20 l-143 0 0 230 0 230 140 0 c107 0 148 -4 170 -15z
m-1290 -395 l0 -50 -50 0 -50 0 0 43 c0 24 3 47 7 50 3 4 26 7 50 7 l43 0 0
-50z"/>
<path d="M2040 1695 l0 -65 59 0 c70 0 91 15 91 65 0 46 -29 65 -97 65 l-53 0
0 -65z"/>
<path d="M2470 1610 l0 -152 60 4 c48 3 66 10 86 30 49 49 55 182 10 235 -18
21 -33 26 -89 30 l-67 6 0 -153z"/>
<path d="M2930 1710 l0 -52 76 4 c76 3 94 13 94 48 0 34 -18 43 -94 48 l-76 5
0 -53z"/>
<path d="M2930 1519 l0 -61 76 4 c82 4 104 18 104 64 0 37 -36 54 -112 54
l-68 0 0 -61z"/>
</g>
</svg>
